<?xml version="1.0" encoding="utf-8"?>
<!-- Generator: Adobe Illustrator 26.0.1, SVG Export Plug-In . SVG Version: 6.00 Build 0)  -->
<svg version="1.1" id="Layer_1" xmlns="http://www.w3.org/2000/svg" xmlns:xlink="http://www.w3.org/1999/xlink" x="0px" y="0px"
	 viewBox="0 0 300 300" style="enable-background:new 0 0 300 300;" xml:space="preserve">
<style type="text/css">
	.st0{fill:url(#SVGID_1_);}
	.st1{fill:#FFDE17;stroke:#FBB040;stroke-width:2;stroke-miterlimit:10;}
	.st2{font-family:'Algerian';}
	.st3{font-size:75.4883px;}
</style>
<g>
	<linearGradient id="SVGID_1_" gradientUnits="userSpaceOnUse" x1="-3.6623" y1="149.2451" x2="288.7296" y2="149.2451">
		<stop  offset="0" style="stop-color:#FFF33B"/>
		<stop  offset="0.0595" style="stop-color:#FFE029"/>
		<stop  offset="0.1303" style="stop-color:#FFD217"/>
		<stop  offset="0.2032" style="stop-color:#FEC90E"/>
		<stop  offset="0.2809" style="stop-color:#FDC70C"/>
		<stop  offset="0.6685" style="stop-color:#F3903F"/>
		<stop  offset="0.8876" style="stop-color:#ED683C"/>
		<stop  offset="1" style="stop-color:#E93E3A"/>
	</linearGradient>
	<path class="st0" d="M287.61,136.26l-0.03-0.17c-2.76-18.56-9.17-36.51-18.65-52.5c-9.48-15.99-21.96-30.1-36.63-41.25
		c-14.64-11.18-31.39-19.48-49.03-24.3c-17.65-4.83-36.1-6.17-54.05-4.03c-17.98,2.11-35.48,7.73-51.19,16.41
		c-15.72,8.66-29.65,20.33-40.85,34.12C25.95,78.3,17.46,94.19,12.3,111.05c-5.18,16.86-6.97,34.62-5.48,51.97
		c1.48,17.38,6.35,34.41,14.25,49.8c7.88,15.4,18.72,29.16,31.66,40.36c12.94,11.21,27.99,19.86,44.06,25.32
		c16.06,5.48,33.12,7.73,49.87,6.76c16.76-0.93,33.27-5.11,48.3-12.25c15.04-7.11,28.59-17.14,39.73-29.26
		c11.16-12.11,19.91-26.32,25.63-41.59c5.13-13.64,7.81-28.1,8.04-42.54c0.69-0.03,1.38-0.1,2.07-0.2
		C281.57,157.77,289.26,147.4,287.61,136.26z M257.97,201.21c-6.39,14.65-15.62,27.95-26.93,39c-11.3,11.06-24.69,19.88-39.17,25.82
		c-14.48,5.96-30.03,9-45.52,9.05c-15.5,0.08-30.92-2.82-45.14-8.53c-14.23-5.69-27.25-14.15-38.18-24.68
		c-10.94-10.52-19.77-23.1-25.88-36.79c-6.13-13.69-9.5-28.49-9.97-43.33c-0.49-14.86,1.85-29.69,6.89-43.46
		c5.02-13.77,12.74-26.47,22.49-37.22c9.75-10.76,21.52-19.57,34.43-25.81c12.91-6.26,26.93-9.92,41.1-10.82
		c14.18-0.94,28.46,0.91,41.73,5.33c13.29,4.41,25.63,11.4,36.19,20.39c10.58,8.97,19.28,20.01,25.62,32.14
		c6.34,12.14,10.26,25.39,11.53,38.87c0.03,0.34,0.08,0.75,0.13,1.08c1.54,10.35,10.61,17.72,20.83,17.38
		C267.11,173.99,263.69,188.13,257.97,201.21z"/>
	<text transform="matrix(1 0 0 1 70.4307 178.957)" class="st1 st2 st3">SMV</text>
</g>
</svg>
